<svg width="677" height="169" viewBox="0 0 677 169" fill="none" xmlns="http://www.w3.org/2000/svg">
<rect x="1.5" y="1.5" width="674" height="166" stroke="white" stroke-width="3"/>
<path d="M200.84 99.24C198.707 99.24 196.733 98.8933 194.92 98.2C193.133 97.48 191.573 96.48 190.24 95.2C188.933 93.92 187.907 92.4133 187.16 90.68C186.44 88.9467 186.08 87.0533 186.08 85C186.08 82.9467 186.44 81.0533 187.16 79.32C187.907 77.5867 188.947 76.08 190.28 74.8C191.613 73.52 193.173 72.5333 194.96 71.84C196.773 71.12 198.747 70.76 200.88 70.76C203.013 70.76 204.96 71.0933 206.72 71.76C208.507 72.4267 210.027 73.44 211.28 74.8L209.44 76.68C208.267 75.5067 206.973 74.6667 205.56 74.16C204.147 73.6533 202.627 73.4 201 73.4C199.267 73.4 197.667 73.6933 196.2 74.28C194.76 74.84 193.493 75.6533 192.4 76.72C191.333 77.76 190.493 78.9867 189.88 80.4C189.293 81.7867 189 83.32 189 85C189 86.6533 189.293 88.1867 189.88 89.6C190.493 91.0133 191.333 92.2533 192.4 93.32C193.493 94.36 194.76 95.1733 196.2 95.76C197.667 96.32 199.253 96.6 200.96 96.6C202.56 96.6 204.067 96.36 205.48 95.88C206.92 95.4 208.24 94.5867 209.44 93.44L211.12 95.68C209.787 96.8533 208.227 97.7467 206.44 98.36C204.653 98.9467 202.787 99.24 200.84 99.24ZM208.28 95.32V85H211.12V95.68L208.28 95.32ZM227.818 99.2C225.631 99.2 223.711 98.7467 222.058 97.84C220.404 96.9067 219.111 95.64 218.178 94.04C217.244 92.4133 216.778 90.56 216.778 88.48C216.778 86.4 217.218 84.56 218.098 82.96C219.004 81.36 220.231 80.1067 221.778 79.2C223.351 78.2667 225.111 77.8 227.058 77.8C229.031 77.8 230.778 78.2533 232.298 79.16C233.844 80.04 235.058 81.2933 235.938 82.92C236.818 84.52 237.258 86.3733 237.258 88.48C237.258 88.6133 237.244 88.76 237.218 88.92C237.218 89.0533 237.218 89.2 237.218 89.36H218.938V87.24H235.698L234.578 88.08C234.578 86.56 234.244 85.2133 233.578 84.04C232.938 82.84 232.058 81.9067 230.938 81.24C229.818 80.5733 228.524 80.24 227.058 80.24C225.618 80.24 224.324 80.5733 223.178 81.24C222.031 81.9067 221.138 82.84 220.498 84.04C219.858 85.24 219.538 86.6133 219.538 88.16V88.6C219.538 90.2 219.884 91.6133 220.578 92.84C221.298 94.04 222.284 94.9867 223.538 95.68C224.818 96.3467 226.271 96.68 227.898 96.68C229.178 96.68 230.364 96.4533 231.458 96C232.578 95.5467 233.538 94.8533 234.338 93.92L235.938 95.76C235.004 96.88 233.831 97.7333 232.418 98.32C231.031 98.9067 229.498 99.2 227.818 99.2ZM249.678 99.2C247.705 99.2 246.185 98.6667 245.118 97.6C244.051 96.5333 243.518 95.0267 243.518 93.08V73.36H246.358V92.92C246.358 94.1467 246.665 95.0933 247.278 95.76C247.918 96.4267 248.825 96.76 249.998 96.76C251.251 96.76 252.291 96.4 253.118 95.68L254.118 97.72C253.558 98.2267 252.878 98.6 252.078 98.84C251.305 99.08 250.505 99.2 249.678 99.2ZM239.758 80.36V78H252.758V80.36H239.758ZM278.077 99.24C275.997 99.24 273.997 98.9067 272.077 98.24C270.184 97.5467 268.717 96.6667 267.677 95.6L268.837 93.32C269.824 94.28 271.144 95.0933 272.797 95.76C274.477 96.4 276.237 96.72 278.077 96.72C279.837 96.72 281.264 96.5067 282.357 96.08C283.477 95.6267 284.29 95.0267 284.797 94.28C285.33 93.5333 285.597 92.7067 285.597 91.8C285.597 90.7067 285.277 89.8267 284.637 89.16C284.024 88.4933 283.21 87.9733 282.197 87.6C281.184 87.2 280.064 86.8533 278.837 86.56C277.61 86.2667 276.384 85.96 275.157 85.64C273.93 85.2933 272.797 84.84 271.757 84.28C270.744 83.72 269.917 82.9867 269.277 82.08C268.664 81.1467 268.357 79.9333 268.357 78.44C268.357 77.0533 268.717 75.7867 269.437 74.64C270.184 73.4667 271.317 72.5333 272.837 71.84C274.357 71.12 276.304 70.76 278.677 70.76C280.25 70.76 281.81 70.9867 283.357 71.44C284.904 71.8667 286.237 72.4667 287.357 73.24L286.357 75.6C285.157 74.8 283.877 74.2133 282.517 73.84C281.184 73.4667 279.89 73.28 278.637 73.28C276.957 73.28 275.57 73.5067 274.477 73.96C273.384 74.4133 272.57 75.0267 272.037 75.8C271.53 76.5467 271.277 77.4 271.277 78.36C271.277 79.4533 271.584 80.3333 272.197 81C272.837 81.6667 273.664 82.1867 274.677 82.56C275.717 82.9333 276.85 83.2667 278.077 83.56C279.304 83.8533 280.517 84.1733 281.717 84.52C282.944 84.8667 284.064 85.32 285.077 85.88C286.117 86.4133 286.944 87.1333 287.557 88.04C288.197 88.9467 288.517 90.1333 288.517 91.6C288.517 92.96 288.144 94.2267 287.397 95.4C286.65 96.5467 285.504 97.48 283.957 98.2C282.437 98.8933 280.477 99.24 278.077 99.24ZM301.006 99.2C299.033 99.2 297.513 98.6667 296.446 97.6C295.38 96.5333 294.846 95.0267 294.846 93.08V73.36H297.686V92.92C297.686 94.1467 297.993 95.0933 298.606 95.76C299.246 96.4267 300.153 96.76 301.326 96.76C302.58 96.76 303.62 96.4 304.446 95.68L305.446 97.72C304.886 98.2267 304.206 98.6 303.406 98.84C302.633 99.08 301.833 99.2 301.006 99.2ZM291.086 80.36V78H304.086V80.36H291.086ZM323.776 99V94.36L323.656 93.6V85.84C323.656 84.0533 323.15 82.68 322.136 81.72C321.15 80.76 319.67 80.28 317.696 80.28C316.336 80.28 315.043 80.5067 313.816 80.96C312.59 81.4133 311.55 82.0133 310.696 82.76L309.416 80.64C310.483 79.7333 311.763 79.04 313.256 78.56C314.75 78.0533 316.323 77.8 317.976 77.8C320.696 77.8 322.79 78.48 324.256 79.84C325.75 81.1733 326.496 83.2133 326.496 85.96V99H323.776ZM316.536 99.2C314.963 99.2 313.59 98.9467 312.416 98.44C311.27 97.9067 310.39 97.1867 309.776 96.28C309.163 95.3467 308.856 94.28 308.856 93.08C308.856 91.9867 309.11 91 309.616 90.12C310.15 89.2133 311.003 88.4933 312.176 87.96C313.376 87.4 314.976 87.12 316.976 87.12H324.216V89.24H317.056C315.03 89.24 313.616 89.6 312.816 90.32C312.043 91.04 311.656 91.9333 311.656 93C311.656 94.2 312.123 95.16 313.056 95.88C313.99 96.6 315.296 96.96 316.976 96.96C318.576 96.96 319.95 96.6 321.096 95.88C322.27 95.1333 323.123 94.0667 323.656 92.68L324.296 94.64C323.763 96.0267 322.83 97.1333 321.496 97.96C320.19 98.7867 318.536 99.2 316.536 99.2ZM334.21 99V78H336.93V83.72L336.65 82.72C337.237 81.12 338.223 79.9067 339.61 79.08C340.997 78.2267 342.717 77.8 344.77 77.8V80.56C344.663 80.56 344.557 80.56 344.45 80.56C344.343 80.5333 344.237 80.52 344.13 80.52C341.917 80.52 340.183 81.2 338.93 82.56C337.677 83.8933 337.05 85.8 337.05 88.28V99H334.21ZM357.491 99.2C355.517 99.2 353.997 98.6667 352.931 97.6C351.864 96.5333 351.331 95.0267 351.331 93.08V73.36H354.171V92.92C354.171 94.1467 354.477 95.0933 355.091 95.76C355.731 96.4267 356.637 96.76 357.811 96.76C359.064 96.76 360.104 96.4 360.931 95.68L361.931 97.72C361.371 98.2267 360.691 98.6 359.891 98.84C359.117 99.08 358.317 99.2 357.491 99.2ZM347.571 80.36V78H360.571V80.36H347.571ZM375.278 99.2C373.092 99.2 371.172 98.7467 369.518 97.84C367.865 96.9067 366.572 95.64 365.638 94.04C364.705 92.4133 364.238 90.56 364.238 88.48C364.238 86.4 364.678 84.56 365.558 82.96C366.465 81.36 367.692 80.1067 369.238 79.2C370.812 78.2667 372.572 77.8 374.518 77.8C376.492 77.8 378.238 78.2533 379.758 79.16C381.305 80.04 382.518 81.2933 383.398 82.92C384.278 84.52 384.718 86.3733 384.718 88.48C384.718 88.6133 384.705 88.76 384.678 88.92C384.678 89.0533 384.678 89.2 384.678 89.36H366.398V87.24H383.158L382.038 88.08C382.038 86.56 381.705 85.2133 381.038 84.04C380.398 82.84 379.518 81.9067 378.398 81.24C377.278 80.5733 375.985 80.24 374.518 80.24C373.078 80.24 371.785 80.5733 370.638 81.24C369.492 81.9067 368.598 82.84 367.958 84.04C367.318 85.24 366.998 86.6133 366.998 88.16V88.6C366.998 90.2 367.345 91.6133 368.038 92.84C368.758 94.04 369.745 94.9867 370.998 95.68C372.278 96.3467 373.732 96.68 375.358 96.68C376.638 96.68 377.825 96.4533 378.918 96C380.038 95.5467 380.998 94.8533 381.798 93.92L383.398 95.76C382.465 96.88 381.292 97.7333 379.878 98.32C378.492 98.9067 376.958 99.2 375.278 99.2ZM398.859 99.2C396.859 99.2 395.059 98.7467 393.459 97.84C391.886 96.9333 390.646 95.68 389.739 94.08C388.832 92.4533 388.379 90.5867 388.379 88.48C388.379 86.3467 388.832 84.48 389.739 82.88C390.646 81.28 391.886 80.04 393.459 79.16C395.059 78.2533 396.859 77.8 398.859 77.8C400.699 77.8 402.339 78.2133 403.779 79.04C405.246 79.8667 406.406 81.08 407.259 82.68C408.139 84.2533 408.579 86.1867 408.579 88.48C408.579 90.7467 408.152 92.68 407.299 94.28C406.446 95.88 405.286 97.1067 403.819 97.96C402.379 98.7867 400.726 99.2 398.859 99.2ZM399.059 96.68C400.552 96.68 401.886 96.3467 403.059 95.68C404.259 94.9867 405.192 94.0267 405.859 92.8C406.552 91.5467 406.899 90.1067 406.899 88.48C406.899 86.8267 406.552 85.3867 405.859 84.16C405.192 82.9333 404.259 81.9867 403.059 81.32C401.886 80.6267 400.552 80.28 399.059 80.28C397.592 80.28 396.272 80.6267 395.099 81.32C393.926 81.9867 392.992 82.9333 392.299 84.16C391.606 85.3867 391.259 86.8267 391.259 88.48C391.259 90.1067 391.606 91.5467 392.299 92.8C392.992 94.0267 393.926 94.9867 395.099 95.68C396.272 96.3467 397.592 96.68 399.059 96.68ZM406.979 99V92.68L407.259 88.44L406.859 84.2V69.32H409.699V99H406.979ZM428.677 99V71H431.117L450.437 95.32H449.157V71H452.077V99H449.637L430.357 74.68H431.637V99H428.677ZM469.176 99.2C467.15 99.2 465.323 98.7467 463.696 97.84C462.096 96.9067 460.83 95.64 459.896 94.04C458.963 92.4133 458.496 90.56 458.496 88.48C458.496 86.3733 458.963 84.52 459.896 82.92C460.83 81.32 462.096 80.0667 463.696 79.16C465.296 78.2533 467.123 77.8 469.176 77.8C471.256 77.8 473.096 78.2533 474.696 79.16C476.323 80.0667 477.59 81.32 478.496 82.92C479.43 84.52 479.896 86.3733 479.896 88.48C479.896 90.56 479.43 92.4133 478.496 94.04C477.59 95.64 476.323 96.9067 474.696 97.84C473.07 98.7467 471.23 99.2 469.176 99.2ZM469.176 96.68C470.696 96.68 472.043 96.3467 473.216 95.68C474.39 94.9867 475.31 94.0267 475.976 92.8C476.67 91.5467 477.016 90.1067 477.016 88.48C477.016 86.8267 476.67 85.3867 475.976 84.16C475.31 82.9333 474.39 81.9867 473.216 81.32C472.043 80.6267 470.71 80.28 469.216 80.28C467.723 80.28 466.39 80.6267 465.216 81.32C464.043 81.9867 463.11 82.9333 462.416 84.16C461.723 85.3867 461.376 86.8267 461.376 88.48C461.376 90.1067 461.723 91.5467 462.416 92.8C463.11 94.0267 464.043 94.9867 465.216 95.68C466.39 96.3467 467.71 96.68 469.176 96.68ZM489.388 99L481.468 78H484.188L491.388 97.48H490.148L497.548 78H499.988L507.308 97.48H506.068L513.388 78H515.988L508.028 99H505.348L498.308 80.68H499.148L492.068 99H489.388Z" fill="white"/>
</svg>
