<svg width="871" height="215" viewBox="0 0 871 215" fill="none" xmlns="http://www.w3.org/2000/svg">
<path d="M247.24 205V194.6L247.92 196.44L236.04 177H239.2L249.64 194.08H247.96L258.4 177H261.36L249.48 196.44L250.16 194.6V205H247.24ZM271.528 205.2C269.501 205.2 267.674 204.747 266.048 203.84C264.448 202.907 263.181 201.64 262.248 200.04C261.314 198.413 260.848 196.56 260.848 194.48C260.848 192.373 261.314 190.52 262.248 188.92C263.181 187.32 264.448 186.067 266.048 185.16C267.648 184.253 269.474 183.8 271.528 183.8C273.608 183.8 275.448 184.253 277.048 185.16C278.674 186.067 279.941 187.32 280.848 188.92C281.781 190.52 282.248 192.373 282.248 194.48C282.248 196.56 281.781 198.413 280.848 200.04C279.941 201.64 278.674 202.907 277.048 203.84C275.421 204.747 273.581 205.2 271.528 205.2ZM271.528 202.68C273.048 202.68 274.394 202.347 275.568 201.68C276.741 200.987 277.661 200.027 278.328 198.8C279.021 197.547 279.368 196.107 279.368 194.48C279.368 192.827 279.021 191.387 278.328 190.16C277.661 188.933 276.741 187.987 275.568 187.32C274.394 186.627 273.061 186.28 271.568 186.28C270.074 186.28 268.741 186.627 267.568 187.32C266.394 187.987 265.461 188.933 264.768 190.16C264.074 191.387 263.728 192.827 263.728 194.48C263.728 196.107 264.074 197.547 264.768 198.8C265.461 200.027 266.394 200.987 267.568 201.68C268.741 202.347 270.061 202.68 271.528 202.68ZM296.726 205.2C294.939 205.2 293.379 204.867 292.046 204.2C290.713 203.533 289.673 202.533 288.926 201.2C288.206 199.867 287.846 198.2 287.846 196.2V184H290.686V195.88C290.686 198.12 291.233 199.813 292.326 200.96C293.446 202.08 295.006 202.64 297.006 202.64C298.473 202.64 299.739 202.347 300.806 201.76C301.899 201.147 302.726 200.267 303.286 199.12C303.873 197.973 304.166 196.6 304.166 195V184H307.006V205H304.286V199.24L304.726 200.28C304.059 201.827 303.019 203.04 301.606 203.92C300.219 204.773 298.593 205.2 296.726 205.2ZM314.921 205V184H317.641V189.72L317.361 188.72C317.948 187.12 318.934 185.907 320.321 185.08C321.708 184.227 323.428 183.8 325.481 183.8V186.56C325.374 186.56 325.268 186.56 325.161 186.56C325.054 186.533 324.948 186.52 324.841 186.52C322.628 186.52 320.894 187.2 319.641 188.56C318.388 189.893 317.761 191.8 317.761 194.28V205H314.921ZM344.684 190.56H359.484V193.12H344.684V190.56ZM345.004 205H342.044V177H361.244V179.56H345.004V205ZM374.734 205.2C372.947 205.2 371.387 204.867 370.054 204.2C368.72 203.533 367.68 202.533 366.934 201.2C366.214 199.867 365.854 198.2 365.854 196.2V184H368.694V195.88C368.694 198.12 369.24 199.813 370.334 200.96C371.454 202.08 373.014 202.64 375.014 202.64C376.48 202.64 377.747 202.347 378.814 201.76C379.907 201.147 380.734 200.267 381.294 199.12C381.88 197.973 382.174 196.6 382.174 195V184H385.014V205H382.294V199.24L382.734 200.28C382.067 201.827 381.027 203.04 379.614 203.92C378.227 204.773 376.6 205.2 374.734 205.2ZM399.569 205.2C397.595 205.2 396.075 204.667 395.009 203.6C393.942 202.533 393.409 201.027 393.409 199.08V179.36H396.249V198.92C396.249 200.147 396.555 201.093 397.169 201.76C397.809 202.427 398.715 202.76 399.889 202.76C401.142 202.76 402.182 202.4 403.009 201.68L404.009 203.72C403.449 204.227 402.769 204.6 401.969 204.84C401.195 205.08 400.395 205.2 399.569 205.2ZM389.649 186.36V184H402.649V186.36H389.649ZM417.859 205.2C416.072 205.2 414.512 204.867 413.179 204.2C411.845 203.533 410.805 202.533 410.059 201.2C409.339 199.867 408.979 198.2 408.979 196.2V184H411.819V195.88C411.819 198.12 412.365 199.813 413.459 200.96C414.579 202.08 416.139 202.64 418.139 202.64C419.605 202.64 420.872 202.347 421.939 201.76C423.032 201.147 423.859 200.267 424.419 199.12C425.005 197.973 425.299 196.6 425.299 195V184H428.139V205H425.419V199.24L425.859 200.28C425.192 201.827 424.152 203.04 422.739 203.92C421.352 204.773 419.725 205.2 417.859 205.2ZM436.054 205V184H438.774V189.72L438.494 188.72C439.08 187.12 440.067 185.907 441.454 185.08C442.84 184.227 444.56 183.8 446.614 183.8V186.56C446.507 186.56 446.4 186.56 446.294 186.56C446.187 186.533 446.08 186.52 445.974 186.52C443.76 186.52 442.027 187.2 440.774 188.56C439.52 189.893 438.894 191.8 438.894 194.28V205H436.054ZM460.521 205.2C458.334 205.2 456.414 204.747 454.761 203.84C453.107 202.907 451.814 201.64 450.881 200.04C449.947 198.413 449.481 196.56 449.481 194.48C449.481 192.4 449.921 190.56 450.801 188.96C451.707 187.36 452.934 186.107 454.481 185.2C456.054 184.267 457.814 183.8 459.761 183.8C461.734 183.8 463.481 184.253 465.001 185.16C466.547 186.04 467.761 187.293 468.641 188.92C469.521 190.52 469.961 192.373 469.961 194.48C469.961 194.613 469.947 194.76 469.921 194.92C469.921 195.053 469.921 195.2 469.921 195.36H451.641V193.24H468.401L467.281 194.08C467.281 192.56 466.947 191.213 466.281 190.04C465.641 188.84 464.761 187.907 463.641 187.24C462.521 186.573 461.227 186.24 459.761 186.24C458.321 186.24 457.027 186.573 455.881 187.24C454.734 187.907 453.841 188.84 453.201 190.04C452.561 191.24 452.241 192.613 452.241 194.16V194.6C452.241 196.2 452.587 197.613 453.281 198.84C454.001 200.04 454.987 200.987 456.241 201.68C457.521 202.347 458.974 202.68 460.601 202.68C461.881 202.68 463.067 202.453 464.161 202C465.281 201.547 466.241 200.853 467.041 199.92L468.641 201.76C467.707 202.88 466.534 203.733 465.121 204.32C463.734 204.907 462.201 205.2 460.521 205.2ZM486.81 205V177H489.25L502.05 198.84H500.77L513.45 177H515.89V205H513.05V181.44H513.73L502.05 201.44H500.65L488.89 181.44H489.65V205H486.81ZM537.573 205V200.36L537.453 199.6V191.84C537.453 190.053 536.946 188.68 535.933 187.72C534.946 186.76 533.466 186.28 531.493 186.28C530.133 186.28 528.84 186.507 527.613 186.96C526.386 187.413 525.346 188.013 524.493 188.76L523.213 186.64C524.28 185.733 525.56 185.04 527.053 184.56C528.546 184.053 530.12 183.8 531.773 183.8C534.493 183.8 536.586 184.48 538.053 185.84C539.546 187.173 540.293 189.213 540.293 191.96V205H537.573ZM530.333 205.2C528.76 205.2 527.386 204.947 526.213 204.44C525.066 203.907 524.186 203.187 523.573 202.28C522.96 201.347 522.653 200.28 522.653 199.08C522.653 197.987 522.906 197 523.413 196.12C523.946 195.213 524.8 194.493 525.973 193.96C527.173 193.4 528.773 193.12 530.773 193.12H538.013V195.24H530.853C528.826 195.24 527.413 195.6 526.613 196.32C525.84 197.04 525.453 197.933 525.453 199C525.453 200.2 525.92 201.16 526.853 201.88C527.786 202.6 529.093 202.96 530.773 202.96C532.373 202.96 533.746 202.6 534.893 201.88C536.066 201.133 536.92 200.067 537.453 198.68L538.093 200.64C537.56 202.027 536.626 203.133 535.293 203.96C533.986 204.787 532.333 205.2 530.333 205.2ZM554.647 205.2C552.674 205.2 551.154 204.667 550.087 203.6C549.02 202.533 548.487 201.027 548.487 199.08V179.36H551.327V198.92C551.327 200.147 551.634 201.093 552.247 201.76C552.887 202.427 553.794 202.76 554.967 202.76C556.22 202.76 557.26 202.4 558.087 201.68L559.087 203.72C558.527 204.227 557.847 204.6 557.047 204.84C556.274 205.08 555.474 205.2 554.647 205.2ZM544.727 186.36V184H557.727V186.36H544.727ZM570.35 205.2C568.377 205.2 566.857 204.667 565.79 203.6C564.723 202.533 564.19 201.027 564.19 199.08V179.36H567.03V198.92C567.03 200.147 567.337 201.093 567.95 201.76C568.59 202.427 569.497 202.76 570.67 202.76C571.923 202.76 572.963 202.4 573.79 201.68L574.79 203.72C574.23 204.227 573.55 204.6 572.75 204.84C571.977 205.08 571.177 205.2 570.35 205.2ZM560.43 186.36V184H573.43V186.36H560.43ZM588.138 205.2C585.951 205.2 584.031 204.747 582.378 203.84C580.724 202.907 579.431 201.64 578.498 200.04C577.564 198.413 577.098 196.56 577.098 194.48C577.098 192.4 577.538 190.56 578.418 188.96C579.324 187.36 580.551 186.107 582.098 185.2C583.671 184.267 585.431 183.8 587.378 183.8C589.351 183.8 591.098 184.253 592.618 185.16C594.164 186.04 595.378 187.293 596.258 188.92C597.138 190.52 597.578 192.373 597.578 194.48C597.578 194.613 597.564 194.76 597.538 194.92C597.538 195.053 597.538 195.2 597.538 195.36H579.258V193.24H596.018L594.898 194.08C594.898 192.56 594.564 191.213 593.898 190.04C593.258 188.84 592.378 187.907 591.258 187.24C590.138 186.573 588.844 186.24 587.378 186.24C585.938 186.24 584.644 186.573 583.498 187.24C582.351 187.907 581.458 188.84 580.818 190.04C580.178 191.24 579.858 192.613 579.858 194.16V194.6C579.858 196.2 580.204 197.613 580.898 198.84C581.618 200.04 582.604 200.987 583.858 201.68C585.138 202.347 586.591 202.68 588.218 202.68C589.498 202.68 590.684 202.453 591.778 202C592.898 201.547 593.858 200.853 594.658 199.92L596.258 201.76C595.324 202.88 594.151 203.733 592.738 204.32C591.351 204.907 589.818 205.2 588.138 205.2ZM603.358 205V184H606.078V189.72L605.798 188.72C606.385 187.12 607.372 185.907 608.758 185.08C610.145 184.227 611.865 183.8 613.918 183.8V186.56C613.812 186.56 613.705 186.56 613.598 186.56C613.492 186.533 613.385 186.52 613.278 186.52C611.065 186.52 609.332 187.2 608.078 188.56C606.825 189.893 606.198 191.8 606.198 194.28V205H603.358ZM624.975 205.2C623.242 205.2 621.602 204.96 620.055 204.48C618.508 203.973 617.295 203.347 616.415 202.6L617.695 200.36C618.548 201 619.642 201.56 620.975 202.04C622.308 202.493 623.708 202.72 625.175 202.72C627.175 202.72 628.615 202.413 629.495 201.8C630.375 201.16 630.815 200.32 630.815 199.28C630.815 198.507 630.562 197.907 630.055 197.48C629.575 197.027 628.935 196.693 628.135 196.48C627.335 196.24 626.442 196.04 625.455 195.88C624.468 195.72 623.482 195.533 622.495 195.32C621.535 195.107 620.655 194.8 619.855 194.4C619.055 193.973 618.402 193.4 617.895 192.68C617.415 191.96 617.175 191 617.175 189.8C617.175 188.653 617.495 187.627 618.135 186.72C618.775 185.813 619.708 185.107 620.935 184.6C622.188 184.067 623.708 183.8 625.495 183.8C626.855 183.8 628.215 183.987 629.575 184.36C630.935 184.707 632.055 185.173 632.935 185.76L631.695 188.04C630.762 187.4 629.762 186.947 628.695 186.68C627.628 186.387 626.562 186.24 625.495 186.24C623.602 186.24 622.202 186.573 621.295 187.24C620.415 187.88 619.975 188.707 619.975 189.72C619.975 190.52 620.215 191.147 620.695 191.6C621.202 192.053 621.855 192.413 622.655 192.68C623.482 192.92 624.375 193.12 625.335 193.28C626.322 193.44 627.295 193.64 628.255 193.88C629.242 194.093 630.135 194.4 630.935 194.8C631.762 195.173 632.415 195.72 632.895 196.44C633.402 197.133 633.655 198.053 633.655 199.2C633.655 200.427 633.308 201.493 632.615 202.4C631.948 203.28 630.962 203.973 629.655 204.48C628.375 204.96 626.815 205.2 624.975 205.2Z" fill="white"/>
<path d="M10.944 93V25.8H38.304C45.472 25.8 51.744 27.24 57.12 30.12C62.56 32.936 66.784 36.872 69.792 41.928C72.8 46.984 74.304 52.808 74.304 59.4C74.304 65.992 72.8 71.816 69.792 76.872C66.784 81.928 62.56 85.896 57.12 88.776C51.744 91.592 45.472 93 38.304 93H10.944ZM18.048 86.856H37.92C43.872 86.856 49.024 85.704 53.376 83.4C57.792 81.032 61.216 77.8 63.648 73.704C66.08 69.544 67.296 64.776 67.296 59.4C67.296 53.96 66.08 49.192 63.648 45.096C61.216 41 57.792 37.8 53.376 35.496C49.024 33.128 43.872 31.944 37.92 31.944H18.048V86.856ZM88.8165 93V42.6H95.3445V56.328L94.6725 53.928C96.0805 50.088 98.4485 47.176 101.777 45.192C105.105 43.144 109.233 42.12 114.161 42.12V48.744C113.905 48.744 113.649 48.744 113.393 48.744C113.137 48.68 112.881 48.648 112.625 48.648C107.312 48.648 103.153 50.28 100.145 53.544C97.1365 56.744 95.6325 61.32 95.6325 67.272V93H88.8165ZM126.598 93V42.6H133.414V93H126.598ZM130.054 31.464C128.646 31.464 127.462 30.984 126.502 30.024C125.542 29.064 125.062 27.912 125.062 26.568C125.062 25.224 125.542 24.104 126.502 23.208C127.462 22.248 128.646 21.768 130.054 21.768C131.462 21.768 132.646 22.216 133.606 23.112C134.566 24.008 135.046 25.128 135.046 26.472C135.046 27.88 134.566 29.064 133.606 30.024C132.71 30.984 131.526 31.464 130.054 31.464ZM178.107 42.12C182.203 42.12 185.787 42.92 188.859 44.52C191.995 46.056 194.427 48.424 196.155 51.624C197.947 54.824 198.843 58.856 198.843 63.72V93H192.027V64.392C192.027 59.08 190.683 55.08 187.995 52.392C185.371 49.64 181.659 48.264 176.859 48.264C173.275 48.264 170.139 49 167.451 50.472C164.827 51.88 162.779 53.96 161.307 56.712C159.899 59.4 159.195 62.664 159.195 66.504V93H152.379V42.6H158.907V56.424L157.851 53.832C159.451 50.184 162.011 47.336 165.531 45.288C169.051 43.176 173.243 42.12 178.107 42.12ZM222.63 79.944L222.822 71.208L254.214 42.6H262.566L240.39 63.816L236.55 67.08L222.63 79.944ZM217.254 93V21.768H224.07V93H217.254ZM256.326 93L235.302 66.792L239.718 61.512L264.678 93H256.326ZM301.475 93V25.8H326.627C332.323 25.8 337.219 26.728 341.315 28.584C345.411 30.376 348.547 33 350.723 36.456C352.963 39.848 354.083 43.976 354.083 48.84C354.083 53.576 352.963 57.672 350.723 61.128C348.547 64.52 345.411 67.144 341.315 69C337.219 70.792 332.323 71.688 326.627 71.688H305.411L308.579 68.424V93H301.475ZM347.363 93L330.083 68.616H337.763L355.139 93H347.363ZM308.579 69L305.411 65.64H326.435C333.155 65.64 338.243 64.168 341.699 61.224C345.219 58.28 346.979 54.152 346.979 48.84C346.979 43.464 345.219 39.304 341.699 36.36C338.243 33.416 333.155 31.944 326.435 31.944H305.411L308.579 28.584V69ZM390.818 93.48C385.57 93.48 380.962 92.392 376.994 90.216C373.026 87.976 369.922 84.936 367.682 81.096C365.442 77.192 364.322 72.744 364.322 67.752C364.322 62.76 365.378 58.344 367.49 54.504C369.666 50.664 372.61 47.656 376.322 45.48C380.098 43.24 384.322 42.12 388.994 42.12C393.73 42.12 397.922 43.208 401.57 45.384C405.282 47.496 408.194 50.504 410.306 54.408C412.418 58.248 413.474 62.696 413.474 67.752C413.474 68.072 413.442 68.424 413.378 68.808C413.378 69.128 413.378 69.48 413.378 69.864H369.506V64.776H409.73L407.042 66.792C407.042 63.144 406.242 59.912 404.642 57.096C403.106 54.216 400.994 51.976 398.306 50.376C395.618 48.776 392.514 47.976 388.994 47.976C385.538 47.976 382.434 48.776 379.682 50.376C376.93 51.976 374.786 54.216 373.25 57.096C371.714 59.976 370.946 63.272 370.946 66.984V68.04C370.946 71.88 371.778 75.272 373.442 78.216C375.17 81.096 377.538 83.368 380.546 85.032C383.618 86.632 387.106 87.432 391.01 87.432C394.082 87.432 396.93 86.888 399.554 85.8C402.242 84.712 404.546 83.048 406.466 80.808L410.306 85.224C408.066 87.912 405.25 89.96 401.858 91.368C398.53 92.776 394.85 93.48 390.818 93.48ZM440.884 93.48C436.724 93.48 432.788 92.904 429.076 91.752C425.364 90.536 422.452 89.032 420.34 87.24L423.412 81.864C425.46 83.4 428.084 84.744 431.284 85.896C434.484 86.984 437.844 87.528 441.364 87.528C446.164 87.528 449.62 86.792 451.732 85.32C453.844 83.784 454.9 81.768 454.9 79.272C454.9 77.416 454.292 75.976 453.076 74.952C451.924 73.864 450.388 73.064 448.468 72.552C446.548 71.976 444.404 71.496 442.036 71.112C439.668 70.728 437.3 70.28 434.932 69.768C432.628 69.256 430.516 68.52 428.596 67.56C426.676 66.536 425.108 65.16 423.892 63.432C422.74 61.704 422.164 59.4 422.164 56.52C422.164 53.768 422.932 51.304 424.468 49.128C426.004 46.952 428.244 45.256 431.188 44.04C434.196 42.76 437.844 42.12 442.132 42.12C445.396 42.12 448.66 42.568 451.924 43.464C455.188 44.296 457.876 45.416 459.988 46.824L457.012 52.296C454.772 50.76 452.372 49.672 449.812 49.032C447.252 48.328 444.692 47.976 442.132 47.976C437.588 47.976 434.228 48.776 432.052 50.376C429.94 51.912 428.884 53.896 428.884 56.328C428.884 58.248 429.46 59.752 430.612 60.84C431.828 61.928 433.396 62.792 435.316 63.432C437.3 64.008 439.444 64.488 441.748 64.872C444.116 65.256 446.452 65.736 448.756 66.312C451.124 66.824 453.268 67.56 455.188 68.52C457.172 69.416 458.74 70.728 459.892 72.456C461.108 74.12 461.716 76.328 461.716 79.08C461.716 82.024 460.884 84.584 459.22 86.76C457.62 88.872 455.252 90.536 452.116 91.752C449.044 92.904 445.3 93.48 440.884 93.48ZM500.239 93.48C495.887 93.48 491.951 92.488 488.431 90.504C484.911 88.456 482.095 85.544 479.983 81.768C477.935 77.928 476.911 73.256 476.911 67.752C476.911 62.248 477.935 57.608 479.983 53.832C482.031 49.992 484.815 47.08 488.335 45.096C491.855 43.112 495.823 42.12 500.239 42.12C505.039 42.12 509.327 43.208 513.103 45.384C516.943 47.496 519.951 50.504 522.127 54.408C524.303 58.248 525.391 62.696 525.391 67.752C525.391 72.872 524.303 77.352 522.127 81.192C519.951 85.032 516.943 88.04 513.103 90.216C509.327 92.392 505.039 93.48 500.239 93.48ZM474.223 111.624V42.6H480.751V57.768L480.079 67.848L481.039 78.024V111.624H474.223ZM499.759 87.432C503.343 87.432 506.543 86.632 509.359 85.032C512.175 83.368 514.415 81.064 516.079 78.12C517.743 75.112 518.575 71.656 518.575 67.752C518.575 63.848 517.743 60.424 516.079 57.48C514.415 54.536 512.175 52.232 509.359 50.568C506.543 48.904 503.343 48.072 499.759 48.072C496.175 48.072 492.943 48.904 490.063 50.568C487.247 52.232 485.007 54.536 483.343 57.48C481.743 60.424 480.943 63.848 480.943 67.752C480.943 71.656 481.743 75.112 483.343 78.12C485.007 81.064 487.247 83.368 490.063 85.032C492.943 86.632 496.175 87.432 499.759 87.432ZM559.829 93.48C554.965 93.48 550.581 92.392 546.677 90.216C542.837 87.976 539.797 84.936 537.557 81.096C535.317 77.192 534.197 72.744 534.197 67.752C534.197 62.696 535.317 58.248 537.557 54.408C539.797 50.568 542.837 47.56 546.677 45.384C550.517 43.208 554.901 42.12 559.829 42.12C564.821 42.12 569.237 43.208 573.077 45.384C576.981 47.56 580.021 50.568 582.197 54.408C584.437 58.248 585.557 62.696 585.557 67.752C585.557 72.744 584.437 77.192 582.197 81.096C580.021 84.936 576.981 87.976 573.077 90.216C569.173 92.392 564.757 93.48 559.829 93.48ZM559.829 87.432C563.477 87.432 566.709 86.632 569.525 85.032C572.341 83.368 574.549 81.064 576.149 78.12C577.813 75.112 578.645 71.656 578.645 67.752C578.645 63.784 577.813 60.328 576.149 57.384C574.549 54.44 572.341 52.168 569.525 50.568C566.709 48.904 563.509 48.072 559.925 48.072C556.341 48.072 553.141 48.904 550.325 50.568C547.509 52.168 545.269 54.44 543.605 57.384C541.941 60.328 541.109 63.784 541.109 67.752C541.109 71.656 541.941 75.112 543.605 78.12C545.269 81.064 547.509 83.368 550.325 85.032C553.141 86.632 556.309 87.432 559.829 87.432ZM625.201 42.12C629.297 42.12 632.881 42.92 635.953 44.52C639.089 46.056 641.521 48.424 643.249 51.624C645.041 54.824 645.937 58.856 645.937 63.72V93H639.121V64.392C639.121 59.08 637.777 55.08 635.089 52.392C632.465 49.64 628.753 48.264 623.953 48.264C620.369 48.264 617.233 49 614.545 50.472C611.921 51.88 609.873 53.96 608.401 56.712C606.993 59.4 606.289 62.664 606.289 66.504V93H599.473V42.6H606.001V56.424L604.945 53.832C606.545 50.184 609.105 47.336 612.625 45.288C616.145 43.176 620.337 42.12 625.201 42.12ZM677.884 93.48C673.724 93.48 669.788 92.904 666.076 91.752C662.364 90.536 659.452 89.032 657.34 87.24L660.412 81.864C662.46 83.4 665.084 84.744 668.284 85.896C671.484 86.984 674.844 87.528 678.364 87.528C683.164 87.528 686.62 86.792 688.732 85.32C690.844 83.784 691.9 81.768 691.9 79.272C691.9 77.416 691.292 75.976 690.076 74.952C688.924 73.864 687.388 73.064 685.468 72.552C683.548 71.976 681.404 71.496 679.036 71.112C676.668 70.728 674.3 70.28 671.932 69.768C669.628 69.256 667.516 68.52 665.596 67.56C663.676 66.536 662.108 65.16 660.892 63.432C659.74 61.704 659.164 59.4 659.164 56.52C659.164 53.768 659.932 51.304 661.468 49.128C663.004 46.952 665.244 45.256 668.188 44.04C671.196 42.76 674.844 42.12 679.132 42.12C682.396 42.12 685.66 42.568 688.924 43.464C692.188 44.296 694.876 45.416 696.988 46.824L694.012 52.296C691.772 50.76 689.372 49.672 686.812 49.032C684.252 48.328 681.692 47.976 679.132 47.976C674.588 47.976 671.228 48.776 669.052 50.376C666.94 51.912 665.884 53.896 665.884 56.328C665.884 58.248 666.46 59.752 667.612 60.84C668.828 61.928 670.396 62.792 672.316 63.432C674.3 64.008 676.444 64.488 678.748 64.872C681.116 65.256 683.452 65.736 685.756 66.312C688.124 66.824 690.268 67.56 692.188 68.52C694.172 69.416 695.74 70.728 696.892 72.456C698.108 74.12 698.716 76.328 698.716 79.08C698.716 82.024 697.884 84.584 696.22 86.76C694.62 88.872 692.252 90.536 689.116 91.752C686.044 92.904 682.3 93.48 677.884 93.48ZM711.223 93V42.6H718.039V93H711.223ZM714.679 31.464C713.271 31.464 712.087 30.984 711.127 30.024C710.167 29.064 709.687 27.912 709.687 26.568C709.687 25.224 710.167 24.104 711.127 23.208C712.087 22.248 713.271 21.768 714.679 21.768C716.087 21.768 717.271 22.216 718.231 23.112C719.191 24.008 719.671 25.128 719.671 26.472C719.671 27.88 719.191 29.064 718.231 30.024C717.335 30.984 716.151 31.464 714.679 31.464ZM763.02 93.48C758.604 93.48 754.636 92.488 751.116 90.504C747.596 88.456 744.812 85.512 742.764 81.672C740.716 77.832 739.692 73.192 739.692 67.752C739.692 62.248 740.716 57.608 742.764 53.832C744.876 49.992 747.692 47.08 751.212 45.096C754.732 43.112 758.668 42.12 763.02 42.12C767.82 42.12 772.108 43.208 775.884 45.384C779.724 47.496 782.732 50.472 784.908 54.312C787.084 58.152 788.172 62.632 788.172 67.752C788.172 72.808 787.084 77.288 784.908 81.192C782.732 85.032 779.724 88.04 775.884 90.216C772.108 92.392 767.82 93.48 763.02 93.48ZM737.004 93V21.768H743.82V57.48L742.86 67.656L743.532 77.832V93H737.004ZM762.54 87.432C766.124 87.432 769.324 86.632 772.14 85.032C774.956 83.368 777.196 81.064 778.86 78.12C780.524 75.112 781.356 71.656 781.356 67.752C781.356 63.784 780.524 60.328 778.86 57.384C777.196 54.44 774.956 52.168 772.14 50.568C769.324 48.904 766.124 48.072 762.54 48.072C758.956 48.072 755.724 48.904 752.844 50.568C750.028 52.168 747.788 54.44 746.124 57.384C744.524 60.328 743.724 63.784 743.724 67.752C743.724 71.656 744.524 75.112 746.124 78.12C747.788 81.064 750.028 83.368 752.844 85.032C755.724 86.632 758.956 87.432 762.54 87.432ZM802.067 93V21.768H808.883V93H802.067ZM828.232 112.104C825.864 112.104 823.592 111.72 821.416 110.952C819.304 110.184 817.48 109.032 815.944 107.496L819.112 102.408C820.392 103.624 821.768 104.552 823.24 105.192C824.776 105.896 826.472 106.248 828.328 106.248C830.568 106.248 832.488 105.608 834.088 104.328C835.752 103.112 837.32 100.936 838.792 97.8L842.056 90.408L842.824 89.352L863.56 42.6H870.28L845.032 99.048C843.624 102.312 842.056 104.904 840.328 106.824C838.664 108.744 836.84 110.088 834.856 110.856C832.872 111.688 830.664 112.104 828.232 112.104ZM841.672 94.44L818.44 42.6H825.544L846.088 88.872L841.672 94.44Z" fill="white"/>
</svg>