<svg width="95" height="149" viewBox="0 0 95 149" fill="none" xmlns="http://www.w3.org/2000/svg">
<path d="M7.04541 67.5909C20.978 67.5909 32.2727 56.2962 32.2727 42.3636H72.6363V113H7.04541V67.5909Z" stroke="white" stroke-width="3"/>
<path d="M72.6362 42.3636H92.8181V92.8182H72.6362" stroke="white" stroke-width="3"/>
<path d="M7.04546 38.5095C3.94881 35.7379 2 31.7102 2 27.2273C2 18.8677 8.7768 12.0909 17.1364 12.0909C19.1369 12.0909 21.0468 12.479 22.7948 13.1841C26.744 6.49051 34.0294 2 42.3636 2C50.6977 2 57.9834 6.49051 61.9324 13.1841C63.6807 12.479 65.5904 12.0909 67.5909 12.0909C75.9507 12.0909 82.7273 18.8677 82.7273 27.2273C82.7273 35.5868 75.9507 42.3636 67.5909 42.3636H32.2727C32.2727 56.2962 20.9781 67.5909 7.04546 67.5909V38.5095Z" stroke="white" stroke-width="3"/>
<path d="M13.736 143V126.2H20.984C22.856 126.2 24.304 126.576 25.328 127.328C26.368 128.08 26.888 129.144 26.888 130.52C26.888 131.432 26.672 132.2 26.24 132.824C25.824 133.448 25.248 133.92 24.512 134.24C23.792 134.56 23 134.72 22.136 134.72L22.544 134.144C23.616 134.144 24.536 134.312 25.304 134.648C26.088 134.968 26.696 135.456 27.128 136.112C27.56 136.752 27.776 137.552 27.776 138.512C27.776 139.936 27.248 141.04 26.192 141.824C25.152 142.608 23.576 143 21.464 143H13.736ZM15.512 141.536H21.44C22.912 141.536 24.04 141.288 24.824 140.792C25.608 140.28 26 139.472 26 138.368C26 137.28 25.608 136.488 24.824 135.992C24.04 135.48 22.912 135.224 21.44 135.224H15.32V133.76H20.864C22.208 133.76 23.248 133.504 23.984 132.992C24.736 132.48 25.112 131.72 25.112 130.712C25.112 129.688 24.736 128.928 23.984 128.432C23.248 127.92 22.208 127.664 20.864 127.664H15.512V141.536ZM36.8218 143.12C35.5098 143.12 34.3578 142.848 33.3658 142.304C32.3738 141.744 31.5978 140.984 31.0378 140.024C30.4778 139.048 30.1978 137.936 30.1978 136.688C30.1978 135.44 30.4618 134.336 30.9898 133.376C31.5338 132.416 32.2698 131.664 33.1978 131.12C34.1418 130.56 35.1978 130.28 36.3658 130.28C37.5498 130.28 38.5978 130.552 39.5098 131.096C40.4378 131.624 41.1658 132.376 41.6938 133.352C42.2218 134.312 42.4858 135.424 42.4858 136.688C42.4858 136.768 42.4778 136.856 42.4618 136.952C42.4618 137.032 42.4618 137.12 42.4618 137.216H31.4938V135.944H41.5498L40.8778 136.448C40.8778 135.536 40.6778 134.728 40.2778 134.024C39.8938 133.304 39.3658 132.744 38.6938 132.344C38.0218 131.944 37.2458 131.744 36.3658 131.744C35.5018 131.744 34.7258 131.944 34.0378 132.344C33.3498 132.744 32.8138 133.304 32.4298 134.024C32.0458 134.744 31.8538 135.568 31.8538 136.496V136.76C31.8538 137.72 32.0618 138.568 32.4778 139.304C32.9098 140.024 33.5018 140.592 34.2538 141.008C35.0218 141.408 35.8938 141.608 36.8698 141.608C37.6378 141.608 38.3498 141.472 39.0058 141.2C39.6778 140.928 40.2538 140.512 40.7338 139.952L41.6938 141.056C41.1338 141.728 40.4298 142.24 39.5818 142.592C38.7498 142.944 37.8298 143.12 36.8218 143.12ZM51.3061 143.12C49.9941 143.12 48.8421 142.848 47.8501 142.304C46.8581 141.744 46.0821 140.984 45.5221 140.024C44.9621 139.048 44.6821 137.936 44.6821 136.688C44.6821 135.44 44.9461 134.336 45.4741 133.376C46.0181 132.416 46.7541 131.664 47.6821 131.12C48.6261 130.56 49.6821 130.28 50.8501 130.28C52.0341 130.28 53.0821 130.552 53.9941 131.096C54.9221 131.624 55.6501 132.376 56.1781 133.352C56.7061 134.312 56.9701 135.424 56.9701 136.688C56.9701 136.768 56.9621 136.856 56.9461 136.952C56.9461 137.032 56.9461 137.12 56.9461 137.216H45.9781V135.944H56.0341L55.3621 136.448C55.3621 135.536 55.1621 134.728 54.7621 134.024C54.3781 133.304 53.8501 132.744 53.1781 132.344C52.5061 131.944 51.7301 131.744 50.8501 131.744C49.9861 131.744 49.2101 131.944 48.5221 132.344C47.8341 132.744 47.2981 133.304 46.9141 134.024C46.5301 134.744 46.3381 135.568 46.3381 136.496V136.76C46.3381 137.72 46.5461 138.568 46.9621 139.304C47.3941 140.024 47.9861 140.592 48.7381 141.008C49.5061 141.408 50.3781 141.608 51.3541 141.608C52.1221 141.608 52.8341 141.472 53.4901 141.2C54.1621 140.928 54.7381 140.512 55.2181 139.952L56.1781 141.056C55.6181 141.728 54.9141 142.24 54.0661 142.592C53.2341 142.944 52.3141 143.12 51.3061 143.12ZM60.4385 143V130.4H62.0705V133.832L61.9025 133.232C62.2545 132.272 62.8465 131.544 63.6785 131.048C64.5105 130.536 65.5425 130.28 66.7745 130.28V131.936C66.7105 131.936 66.6465 131.936 66.5825 131.936C66.5185 131.92 66.4545 131.912 66.3905 131.912C65.0625 131.912 64.0225 132.32 63.2705 133.136C62.5185 133.936 62.1425 135.08 62.1425 136.568V143H60.4385Z" fill="white"/>
</svg>
