<svg width="151" height="132" viewBox="0 0 151 132" fill="none" xmlns="http://www.w3.org/2000/svg">
<path d="M116.828 7.3125H35.1719L76.0002 64.1875L116.828 7.3125Z" stroke="white" stroke-width="3"/>
<path d="M76 64.1875V96.6875" stroke="white" stroke-width="3"/>
<path d="M51.625 96.6875H100.375" stroke="white" stroke-width="3"/>
<path d="M102.247 27.625H49.7534" stroke="white" stroke-width="3"/>
<path d="M10.032 126.144C8.768 126.144 7.6 125.936 6.528 125.52C5.456 125.088 4.528 124.488 3.744 123.72C2.96 122.952 2.344 122.048 1.896 121.008C1.464 119.968 1.248 118.832 1.248 117.6C1.248 116.368 1.464 115.232 1.896 114.192C2.344 113.152 2.96 112.248 3.744 111.48C4.544 110.712 5.48 110.12 6.552 109.704C7.624 109.272 8.792 109.056 10.056 109.056C11.272 109.056 12.416 109.264 13.488 109.68C14.56 110.08 15.464 110.688 16.2 111.504L15.072 112.632C14.384 111.928 13.624 111.424 12.792 111.12C11.96 110.8 11.064 110.64 10.104 110.64C9.096 110.64 8.16 110.816 7.296 111.168C6.432 111.504 5.68 111.992 5.04 112.632C4.4 113.256 3.896 113.992 3.528 114.84C3.176 115.672 3 116.592 3 117.6C3 118.608 3.176 119.536 3.528 120.384C3.896 121.216 4.4 121.952 5.04 122.592C5.68 123.216 6.432 123.704 7.296 124.056C8.16 124.392 9.096 124.56 10.104 124.56C11.064 124.56 11.96 124.4 12.792 124.08C13.624 123.76 14.384 123.248 15.072 122.544L16.2 123.672C15.464 124.488 14.56 125.104 13.488 125.52C12.416 125.936 11.264 126.144 10.032 126.144ZM26.058 113.28C27.082 113.28 27.978 113.48 28.746 113.88C29.53 114.264 30.138 114.856 30.57 115.656C31.018 116.456 31.242 117.464 31.242 118.68V126H29.538V118.848C29.538 117.52 29.202 116.52 28.53 115.848C27.874 115.16 26.946 114.816 25.746 114.816C24.85 114.816 24.066 115 23.394 115.368C22.738 115.72 22.226 116.24 21.858 116.928C21.506 117.6 21.33 118.416 21.33 119.376V126H19.626V108.192H21.33V116.856L20.994 116.208C21.394 115.296 22.034 114.584 22.914 114.072C23.794 113.544 24.842 113.28 26.058 113.28ZM43.7408 126V123.216L43.6688 122.76V118.104C43.6688 117.032 43.3648 116.208 42.7568 115.632C42.1648 115.056 41.2768 114.768 40.0928 114.768C39.2768 114.768 38.5008 114.904 37.7648 115.176C37.0288 115.448 36.4048 115.808 35.8928 116.256L35.1248 114.984C35.7648 114.44 36.5328 114.024 37.4288 113.736C38.3248 113.432 39.2688 113.28 40.2608 113.28C41.8928 113.28 43.1488 113.688 44.0288 114.504C44.9248 115.304 45.3728 116.528 45.3728 118.176V126H43.7408ZM39.3968 126.12C38.4528 126.12 37.6288 125.968 36.9248 125.664C36.2368 125.344 35.7088 124.912 35.3408 124.368C34.9728 123.808 34.7888 123.168 34.7888 122.448C34.7888 121.792 34.9408 121.2 35.2448 120.672C35.5648 120.128 36.0768 119.696 36.7808 119.376C37.5008 119.04 38.4608 118.872 39.6608 118.872H44.0048V120.144H39.7088C38.4928 120.144 37.6448 120.36 37.1648 120.792C36.7008 121.224 36.4688 121.76 36.4688 122.4C36.4688 123.12 36.7488 123.696 37.3088 124.128C37.8688 124.56 38.6528 124.776 39.6608 124.776C40.6208 124.776 41.4448 124.56 42.1328 124.128C42.8368 123.68 43.3488 123.04 43.6688 122.208L44.0528 123.384C43.7328 124.216 43.1728 124.88 42.3728 125.376C41.5888 125.872 40.5968 126.12 39.3968 126.12ZM65.745 113.28C66.769 113.28 67.657 113.48 68.409 113.88C69.177 114.264 69.769 114.856 70.185 115.656C70.617 116.456 70.833 117.464 70.833 118.68V126H69.129V118.848C69.129 117.52 68.809 116.52 68.169 115.848C67.545 115.16 66.657 114.816 65.505 114.816C64.641 114.816 63.889 115 63.249 115.368C62.625 115.72 62.137 116.24 61.785 116.928C61.449 117.6 61.281 118.416 61.281 119.376V126H59.577V118.848C59.577 117.52 59.257 116.52 58.617 115.848C57.977 115.16 57.081 114.816 55.929 114.816C55.081 114.816 54.337 115 53.697 115.368C53.057 115.72 52.561 116.24 52.209 116.928C51.873 117.6 51.705 118.416 51.705 119.376V126H50.001V113.4H51.633V116.808L51.369 116.208C51.753 115.296 52.369 114.584 53.217 114.072C54.081 113.544 55.097 113.28 56.265 113.28C57.497 113.28 58.545 113.592 59.409 114.216C60.273 114.824 60.833 115.744 61.089 116.976L60.417 116.712C60.785 115.688 61.433 114.864 62.361 114.24C63.305 113.6 64.433 113.28 65.745 113.28ZM81.9581 126.12C80.8701 126.12 79.8861 125.872 79.0061 125.376C78.1261 124.864 77.4221 124.136 76.8941 123.192C76.3821 122.232 76.1261 121.064 76.1261 119.688C76.1261 118.312 76.3821 117.152 76.8941 116.208C77.4061 115.248 78.1021 114.52 78.9821 114.024C79.8621 113.528 80.8541 113.28 81.9581 113.28C83.1581 113.28 84.2301 113.552 85.1741 114.096C86.1341 114.624 86.8861 115.376 87.4301 116.352C87.9741 117.312 88.2461 118.424 88.2461 119.688C88.2461 120.968 87.9741 122.088 87.4301 123.048C86.8861 124.008 86.1341 124.76 85.1741 125.304C84.2301 125.848 83.1581 126.12 81.9581 126.12ZM75.4541 130.656V113.4H77.0861V117.192L76.9181 119.712L77.1581 122.256V130.656H75.4541ZM81.8381 124.608C82.7341 124.608 83.5341 124.408 84.2381 124.008C84.9421 123.592 85.5021 123.016 85.9181 122.28C86.3341 121.528 86.5421 120.664 86.5421 119.688C86.5421 118.712 86.3341 117.856 85.9181 117.12C85.5021 116.384 84.9421 115.808 84.2381 115.392C83.5341 114.976 82.7341 114.768 81.8381 114.768C80.9421 114.768 80.1341 114.976 79.4141 115.392C78.7101 115.808 78.1501 116.384 77.7341 117.12C77.3341 117.856 77.1341 118.712 77.1341 119.688C77.1341 120.664 77.3341 121.528 77.7341 122.28C78.1501 123.016 78.7101 123.592 79.4141 124.008C80.1341 124.408 80.9421 124.608 81.8381 124.608ZM99.5454 126V123.216L99.4734 122.76V118.104C99.4734 117.032 99.1694 116.208 98.5614 115.632C97.9694 115.056 97.0814 114.768 95.8974 114.768C95.0814 114.768 94.3054 114.904 93.5694 115.176C92.8334 115.448 92.2094 115.808 91.6974 116.256L90.9294 114.984C91.5694 114.44 92.3374 114.024 93.2334 113.736C94.1294 113.432 95.0734 113.28 96.0654 113.28C97.6974 113.28 98.9534 113.688 99.8334 114.504C100.729 115.304 101.177 116.528 101.177 118.176V126H99.5454ZM95.2014 126.12C94.2574 126.12 93.4334 125.968 92.7294 125.664C92.0414 125.344 91.5134 124.912 91.1454 124.368C90.7774 123.808 90.5934 123.168 90.5934 122.448C90.5934 121.792 90.7454 121.2 91.0494 120.672C91.3694 120.128 91.8814 119.696 92.5854 119.376C93.3054 119.04 94.2654 118.872 95.4654 118.872H99.8094V120.144H95.5134C94.2974 120.144 93.4494 120.36 92.9694 120.792C92.5054 121.224 92.2734 121.76 92.2734 122.4C92.2734 123.12 92.5534 123.696 93.1134 124.128C93.6734 124.56 94.4574 124.776 95.4654 124.776C96.4254 124.776 97.2494 124.56 97.9374 124.128C98.6414 123.68 99.1534 123.04 99.4734 122.208L99.8574 123.384C99.5374 124.216 98.9774 124.88 98.1774 125.376C97.3934 125.872 96.4014 126.12 95.2014 126.12ZM111.182 130.776C110.03 130.776 108.926 130.608 107.87 130.272C106.814 129.936 105.958 129.456 105.302 128.832L106.166 127.536C106.758 128.064 107.486 128.48 108.35 128.784C109.23 129.104 110.158 129.264 111.134 129.264C112.734 129.264 113.91 128.888 114.662 128.136C115.414 127.4 115.79 126.248 115.79 124.68V121.536L116.03 119.376L115.862 117.216V113.4H117.494V124.464C117.494 126.64 116.958 128.232 115.886 129.24C114.83 130.264 113.262 130.776 111.182 130.776ZM110.87 125.52C109.67 125.52 108.59 125.264 107.63 124.752C106.67 124.224 105.91 123.496 105.35 122.568C104.806 121.64 104.534 120.576 104.534 119.376C104.534 118.176 104.806 117.12 105.35 116.208C105.91 115.28 106.67 114.56 107.63 114.048C108.59 113.536 109.67 113.28 110.87 113.28C111.99 113.28 112.998 113.512 113.894 113.976C114.79 114.44 115.502 115.128 116.03 116.04C116.558 116.952 116.822 118.064 116.822 119.376C116.822 120.688 116.558 121.8 116.03 122.712C115.502 123.624 114.79 124.32 113.894 124.8C112.998 125.28 111.99 125.52 110.87 125.52ZM111.038 124.008C111.966 124.008 112.79 123.816 113.51 123.432C114.23 123.032 114.798 122.488 115.214 121.8C115.63 121.096 115.838 120.288 115.838 119.376C115.838 118.464 115.63 117.664 115.214 116.976C114.798 116.288 114.23 115.752 113.51 115.368C112.79 114.968 111.966 114.768 111.038 114.768C110.126 114.768 109.302 114.968 108.566 115.368C107.846 115.752 107.278 116.288 106.862 116.976C106.462 117.664 106.262 118.464 106.262 119.376C106.262 120.288 106.462 121.096 106.862 121.8C107.278 122.488 107.846 123.032 108.566 123.432C109.302 123.816 110.126 124.008 111.038 124.008ZM128.667 113.28C129.691 113.28 130.587 113.48 131.355 113.88C132.139 114.264 132.747 114.856 133.179 115.656C133.627 116.456 133.851 117.464 133.851 118.68V126H132.147V118.848C132.147 117.52 131.811 116.52 131.139 115.848C130.483 115.16 129.555 114.816 128.355 114.816C127.459 114.816 126.675 115 126.003 115.368C125.347 115.72 124.835 116.24 124.467 116.928C124.115 117.6 123.939 118.416 123.939 119.376V126H122.235V113.4H123.867V116.856L123.603 116.208C124.003 115.296 124.643 114.584 125.523 114.072C126.403 113.544 127.451 113.28 128.667 113.28ZM143.806 126.12C142.494 126.12 141.342 125.848 140.35 125.304C139.358 124.744 138.582 123.984 138.022 123.024C137.462 122.048 137.182 120.936 137.182 119.688C137.182 118.44 137.446 117.336 137.974 116.376C138.518 115.416 139.254 114.664 140.182 114.12C141.126 113.56 142.182 113.28 143.35 113.28C144.534 113.28 145.582 113.552 146.494 114.096C147.422 114.624 148.15 115.376 148.678 116.352C149.206 117.312 149.47 118.424 149.47 119.688C149.47 119.768 149.462 119.856 149.446 119.952C149.446 120.032 149.446 120.12 149.446 120.216H138.478V118.944H148.534L147.862 119.448C147.862 118.536 147.662 117.728 147.262 117.024C146.878 116.304 146.35 115.744 145.678 115.344C145.006 114.944 144.23 114.744 143.35 114.744C142.486 114.744 141.71 114.944 141.022 115.344C140.334 115.744 139.798 116.304 139.414 117.024C139.03 117.744 138.838 118.568 138.838 119.496V119.76C138.838 120.72 139.046 121.568 139.462 122.304C139.894 123.024 140.486 123.592 141.238 124.008C142.006 124.408 142.878 124.608 143.854 124.608C144.622 124.608 145.334 124.472 145.99 124.2C146.662 123.928 147.238 123.512 147.718 122.952L148.678 124.056C148.118 124.728 147.414 125.24 146.566 125.592C145.734 125.944 144.814 126.12 143.806 126.12Z" fill="white"/>
</svg>
