<svg width="144" height="130" viewBox="0 0 144 130" fill="none" xmlns="http://www.w3.org/2000/svg">
<path d="M95.0035 96.9726C94.9581 97.4988 94.7165 97.9886 94.3267 98.3449C93.9369 98.7011 93.4274 98.8978 92.8994 98.8959H50.0922C49.5641 98.8978 49.0546 98.7011 48.6648 98.3449C48.275 97.9886 48.0334 97.4988 47.988 96.9726L39.9375 4.38931C39.9124 4.09815 39.9481 3.80496 40.0426 3.5284C40.137 3.25185 40.288 2.99799 40.486 2.78301C40.6839 2.56804 40.9245 2.39665 41.1923 2.27977C41.4602 2.1629 41.7494 2.1031 42.0417 2.10418H100.958C101.251 2.1031 101.54 2.1629 101.808 2.27977C102.075 2.39665 102.316 2.56804 102.514 2.78301C102.712 2.99799 102.863 3.25185 102.957 3.5284C103.052 3.80496 103.088 4.09815 103.062 4.38931L95.0035 96.9726Z" stroke="white" stroke-width="3" stroke-linecap="round" stroke-linejoin="round"/>
<path d="M42.6729 35.7708H100.327" stroke="white" stroke-width="3" stroke-linecap="round" stroke-linejoin="round"/>
<path d="M15.024 107.2H16.776V124H15.024V107.2ZM4.512 124H2.736V107.2H4.512V124ZM15.192 116.248H4.32V114.688H15.192V116.248ZM29.7954 124V121.216L29.7234 120.76V116.104C29.7234 115.032 29.4194 114.208 28.8114 113.632C28.2194 113.056 27.3314 112.768 26.1474 112.768C25.3314 112.768 24.5554 112.904 23.8194 113.176C23.0834 113.448 22.4594 113.808 21.9474 114.256L21.1794 112.984C21.8194 112.44 22.5874 112.024 23.4834 111.736C24.3794 111.432 25.3234 111.28 26.3154 111.28C27.9474 111.28 29.2034 111.688 30.0834 112.504C30.9794 113.304 31.4274 114.528 31.4274 116.176V124H29.7954ZM25.4514 124.12C24.5074 124.12 23.6834 123.968 22.9794 123.664C22.2914 123.344 21.7634 122.912 21.3954 122.368C21.0274 121.808 20.8434 121.168 20.8434 120.448C20.8434 119.792 20.9954 119.2 21.2994 118.672C21.6194 118.128 22.1314 117.696 22.8354 117.376C23.5554 117.04 24.5154 116.872 25.7154 116.872H30.0594V118.144H25.7634C24.5474 118.144 23.6994 118.36 23.2194 118.792C22.7554 119.224 22.5234 119.76 22.5234 120.4C22.5234 121.12 22.8034 121.696 23.3634 122.128C23.9234 122.56 24.7074 122.776 25.7154 122.776C26.6754 122.776 27.4994 122.56 28.1874 122.128C28.8914 121.68 29.4034 121.04 29.7234 120.208L30.1074 121.384C29.7874 122.216 29.2274 122.88 28.4274 123.376C27.6434 123.872 26.6514 124.12 25.4514 124.12ZM36.0557 124V111.4H37.6877V114.832L37.5197 114.232C37.8717 113.272 38.4637 112.544 39.2957 112.048C40.1277 111.536 41.1597 111.28 42.3917 111.28V112.936C42.3277 112.936 42.2637 112.936 42.1997 112.936C42.1357 112.92 42.0717 112.912 42.0077 112.912C40.6797 112.912 39.6397 113.32 38.8877 114.136C38.1357 114.936 37.7597 116.08 37.7597 117.568V124H36.0557ZM50.3998 124.12C49.1998 124.12 48.1198 123.848 47.1598 123.304C46.2158 122.76 45.4718 122.008 44.9278 121.048C44.3838 120.072 44.1118 118.952 44.1118 117.688C44.1118 116.408 44.3838 115.288 44.9278 114.328C45.4718 113.368 46.2158 112.624 47.1598 112.096C48.1198 111.552 49.1998 111.28 50.3998 111.28C51.5038 111.28 52.4878 111.528 53.3518 112.024C54.2318 112.52 54.9278 113.248 55.4398 114.208C55.9678 115.152 56.2318 116.312 56.2318 117.688C56.2318 119.048 55.9758 120.208 55.4638 121.168C54.9518 122.128 54.2558 122.864 53.3758 123.376C52.5118 123.872 51.5198 124.12 50.3998 124.12ZM50.5198 122.608C51.4158 122.608 52.2158 122.408 52.9198 122.008C53.6398 121.592 54.1998 121.016 54.5998 120.28C55.0158 119.528 55.2238 118.664 55.2238 117.688C55.2238 116.696 55.0158 115.832 54.5998 115.096C54.1998 114.36 53.6398 113.792 52.9198 113.392C52.2158 112.976 51.4158 112.768 50.5198 112.768C49.6398 112.768 48.8478 112.976 48.1438 113.392C47.4398 113.792 46.8798 114.36 46.4638 115.096C46.0478 115.832 45.8398 116.696 45.8398 117.688C45.8398 118.664 46.0478 119.528 46.4638 120.28C46.8798 121.016 47.4398 121.592 48.1438 122.008C48.8478 122.408 49.6398 122.608 50.5198 122.608ZM55.2718 124V120.208L55.4398 117.664L55.1998 115.12V106.192H56.9038V124H55.2718ZM68.2907 124V107.2H70.0667V122.464H79.4747V124H68.2907ZM82.0635 124V111.4H83.7675V124H82.0635ZM82.9275 108.616C82.5755 108.616 82.2795 108.496 82.0395 108.256C81.7995 108.016 81.6795 107.728 81.6795 107.392C81.6795 107.056 81.7995 106.776 82.0395 106.552C82.2795 106.312 82.5755 106.192 82.9275 106.192C83.2795 106.192 83.5755 106.304 83.8155 106.528C84.0555 106.752 84.1755 107.032 84.1755 107.368C84.1755 107.72 84.0555 108.016 83.8155 108.256C83.5915 108.496 83.2955 108.616 82.9275 108.616ZM93.5248 124.12C92.3248 124.12 91.2448 123.848 90.2848 123.304C89.3408 122.76 88.5968 122.008 88.0528 121.048C87.5088 120.088 87.2368 118.968 87.2368 117.688C87.2368 116.424 87.5088 115.312 88.0528 114.352C88.5968 113.376 89.3408 112.624 90.2848 112.096C91.2448 111.552 92.3248 111.28 93.5248 111.28C94.6448 111.28 95.6368 111.528 96.5008 112.024C97.3808 112.52 98.0768 113.248 98.5888 114.208C99.1008 115.152 99.3568 116.312 99.3568 117.688C99.3568 119.064 99.0928 120.232 98.5648 121.192C98.0528 122.136 97.3568 122.864 96.4768 123.376C95.6128 123.872 94.6288 124.12 93.5248 124.12ZM93.6448 122.608C94.5408 122.608 95.3408 122.408 96.0448 122.008C96.7648 121.592 97.3248 121.016 97.7248 120.28C98.1408 119.528 98.3488 118.664 98.3488 117.688C98.3488 116.712 98.1408 115.856 97.7248 115.12C97.3248 114.384 96.7648 113.808 96.0448 113.392C95.3408 112.976 94.5408 112.768 93.6448 112.768C92.7648 112.768 91.9728 112.976 91.2688 113.392C90.5648 113.808 90.0048 114.384 89.5888 115.12C89.1728 115.856 88.9648 116.712 88.9648 117.688C88.9648 118.664 89.1728 119.528 89.5888 120.28C90.0048 121.016 90.5648 121.592 91.2688 122.008C91.9728 122.408 92.7648 122.608 93.6448 122.608ZM98.3248 128.656V120.256L98.5648 117.712L98.3968 115.192V111.4H100.029V128.656H98.3248ZM109.982 124.12C108.91 124.12 107.974 123.92 107.174 123.52C106.374 123.12 105.75 122.52 105.302 121.72C104.87 120.92 104.654 119.92 104.654 118.72V111.4H106.358V118.528C106.358 119.872 106.686 120.888 107.342 121.576C108.014 122.248 108.95 122.584 110.15 122.584C111.03 122.584 111.79 122.408 112.43 122.056C113.086 121.688 113.582 121.16 113.918 120.472C114.27 119.784 114.446 118.96 114.446 118V111.4H116.15V124H114.518V120.544L114.782 121.168C114.382 122.096 113.758 122.824 112.91 123.352C112.078 123.864 111.102 124.12 109.982 124.12ZM126.035 124.12C124.819 124.12 123.723 123.848 122.747 123.304C121.787 122.744 121.027 121.984 120.467 121.024C119.907 120.048 119.627 118.936 119.627 117.688C119.627 116.424 119.907 115.312 120.467 114.352C121.027 113.392 121.787 112.64 122.747 112.096C123.707 111.552 124.803 111.28 126.035 111.28C127.283 111.28 128.387 111.552 129.347 112.096C130.323 112.64 131.083 113.392 131.627 114.352C132.187 115.312 132.467 116.424 132.467 117.688C132.467 118.936 132.187 120.048 131.627 121.024C131.083 121.984 130.323 122.744 129.347 123.304C128.371 123.848 127.267 124.12 126.035 124.12ZM126.035 122.608C126.947 122.608 127.755 122.408 128.459 122.008C129.163 121.592 129.715 121.016 130.115 120.28C130.531 119.528 130.739 118.664 130.739 117.688C130.739 116.696 130.531 115.832 130.115 115.096C129.715 114.36 129.163 113.792 128.459 113.392C127.755 112.976 126.955 112.768 126.059 112.768C125.163 112.768 124.363 112.976 123.659 113.392C122.955 113.792 122.395 114.36 121.979 115.096C121.563 115.832 121.355 116.696 121.355 117.688C121.355 118.664 121.563 119.528 121.979 120.28C122.395 121.016 122.955 121.592 123.659 122.008C124.363 122.408 125.155 122.608 126.035 122.608ZM135.946 124V111.4H137.578V114.832L137.41 114.232C137.762 113.272 138.354 112.544 139.186 112.048C140.018 111.536 141.05 111.28 142.282 111.28V112.936C142.218 112.936 142.154 112.936 142.09 112.936C142.026 112.92 141.962 112.912 141.898 112.912C140.57 112.912 139.53 113.32 138.778 114.136C138.026 114.936 137.65 116.08 137.65 117.568V124H135.946Z" fill="white"/>
</svg>
