<svg width="101" height="131" viewBox="0 0 101 131" fill="none" xmlns="http://www.w3.org/2000/svg">
<path d="M39.6 2H16.1V25.5L2 39.6V96H53.7V39.6L39.6 25.5V2Z" stroke="white" stroke-width="3"/>
<path d="M100.7 30.2H95.9999C88.2125 30.2 81.8999 36.5128 81.8999 44.3" stroke="white" stroke-width="3"/>
<path d="M67.8003 96C75.2794 96 82.4521 93.0291 87.7405 87.7402C93.0294 82.4518 96.0003 75.2791 96.0003 67.8C96.0003 60.3209 93.0294 53.1482 87.7405 47.8598C82.4521 42.5709 75.2794 39.6 67.8003 39.6" stroke="white" stroke-width="3"/>
<path d="M29.368 125.144C28.12 125.144 26.92 124.944 25.768 124.544C24.632 124.128 23.752 123.6 23.128 122.96L23.824 121.592C24.416 122.168 25.208 122.656 26.2 123.056C27.208 123.44 28.264 123.632 29.368 123.632C30.424 123.632 31.28 123.504 31.936 123.248C32.608 122.976 33.096 122.616 33.4 122.168C33.72 121.72 33.88 121.224 33.88 120.68C33.88 120.024 33.688 119.496 33.304 119.096C32.936 118.696 32.448 118.384 31.84 118.16C31.232 117.92 30.56 117.712 29.824 117.536C29.088 117.36 28.352 117.176 27.616 116.984C26.88 116.776 26.2 116.504 25.576 116.168C24.968 115.832 24.472 115.392 24.088 114.848C23.72 114.288 23.536 113.56 23.536 112.664C23.536 111.832 23.752 111.072 24.184 110.384C24.632 109.68 25.312 109.12 26.224 108.704C27.136 108.272 28.304 108.056 29.728 108.056C30.672 108.056 31.608 108.192 32.536 108.464C33.464 108.72 34.264 109.08 34.936 109.544L34.336 110.96C33.616 110.48 32.848 110.128 32.032 109.904C31.232 109.68 30.456 109.568 29.704 109.568C28.696 109.568 27.864 109.704 27.208 109.976C26.552 110.248 26.064 110.616 25.744 111.08C25.44 111.528 25.288 112.04 25.288 112.616C25.288 113.272 25.472 113.8 25.84 114.2C26.224 114.6 26.72 114.912 27.328 115.136C27.952 115.36 28.632 115.56 29.368 115.736C30.104 115.912 30.832 116.104 31.552 116.312C32.288 116.52 32.96 116.792 33.568 117.128C34.192 117.448 34.688 117.88 35.056 118.424C35.44 118.968 35.632 119.68 35.632 120.56C35.632 121.376 35.408 122.136 34.96 122.84C34.512 123.528 33.824 124.088 32.896 124.52C31.984 124.936 30.808 125.144 29.368 125.144ZM44.2776 125.12C43.0616 125.12 41.9656 124.848 40.9896 124.304C40.0296 123.744 39.2696 122.984 38.7096 122.024C38.1496 121.048 37.8696 119.936 37.8696 118.688C37.8696 117.424 38.1496 116.312 38.7096 115.352C39.2696 114.392 40.0296 113.64 40.9896 113.096C41.9496 112.552 43.0456 112.28 44.2776 112.28C45.5256 112.28 46.6296 112.552 47.5896 113.096C48.5656 113.64 49.3256 114.392 49.8696 115.352C50.4296 116.312 50.7096 117.424 50.7096 118.688C50.7096 119.936 50.4296 121.048 49.8696 122.024C49.3256 122.984 48.5656 123.744 47.5896 124.304C46.6136 124.848 45.5096 125.12 44.2776 125.12ZM44.2776 123.608C45.1896 123.608 45.9976 123.408 46.7016 123.008C47.4056 122.592 47.9576 122.016 48.3576 121.28C48.7736 120.528 48.9816 119.664 48.9816 118.688C48.9816 117.696 48.7736 116.832 48.3576 116.096C47.9576 115.36 47.4056 114.792 46.7016 114.392C45.9976 113.976 45.1976 113.768 44.3016 113.768C43.4056 113.768 42.6056 113.976 41.9016 114.392C41.1976 114.792 40.6376 115.36 40.2216 116.096C39.8056 116.832 39.5976 117.696 39.5976 118.688C39.5976 119.664 39.8056 120.528 40.2216 121.28C40.6376 122.016 41.1976 122.592 41.9016 123.008C42.6056 123.408 43.3976 123.608 44.2776 123.608ZM52.3165 129.776C51.8045 129.776 51.3165 129.704 50.8525 129.56C50.3725 129.432 49.9725 129.232 49.6525 128.96L50.2525 127.664C50.7645 128.096 51.4205 128.312 52.2205 128.312C52.8925 128.312 53.4045 128.112 53.7565 127.712C54.1245 127.312 54.3085 126.72 54.3085 125.936V112.4H56.0125V125.936C56.0125 127.104 55.6925 128.032 55.0525 128.72C54.4285 129.424 53.5165 129.776 52.3165 129.776ZM55.1725 109.616C54.8205 109.616 54.5245 109.496 54.2845 109.256C54.0445 109.016 53.9245 108.728 53.9245 108.392C53.9245 108.056 54.0445 107.776 54.2845 107.552C54.5245 107.312 54.8205 107.192 55.1725 107.192C55.5245 107.192 55.8205 107.304 56.0605 107.528C56.3005 107.752 56.4205 108.032 56.4205 108.368C56.4205 108.72 56.3005 109.016 56.0605 109.256C55.8365 109.496 55.5405 109.616 55.1725 109.616ZM65.9824 125.12C64.9104 125.12 63.9744 124.92 63.1744 124.52C62.3744 124.12 61.7504 123.52 61.3024 122.72C60.8704 121.92 60.6544 120.92 60.6544 119.72V112.4H62.3584V119.528C62.3584 120.872 62.6864 121.888 63.3424 122.576C64.0144 123.248 64.9504 123.584 66.1504 123.584C67.0304 123.584 67.7904 123.408 68.4304 123.056C69.0864 122.688 69.5824 122.16 69.9184 121.472C70.2704 120.784 70.4464 119.96 70.4464 119V112.4H72.1504V125H70.5184V121.544L70.7824 122.168C70.3824 123.096 69.7584 123.824 68.9104 124.352C68.0784 124.864 67.1024 125.12 65.9824 125.12Z" fill="white"/>
</svg>
