<svg width="123" height="147" viewBox="0 0 123 147" fill="none" xmlns="http://www.w3.org/2000/svg">
<path d="M27.8672 13.9947H47.0859V47.912L61.5 62.5789V111.469H13.4531V62.5789L27.8672 47.912V13.9947Z" stroke="white" stroke-width="3"/>
<path d="M95.1328 91.9128V111.469" stroke="white" stroke-width="3"/>
<path d="M80.7188 111.469H109.547" stroke="white" stroke-width="3"/>
<path d="M84.9406 87.3641C82.2375 84.4518 80.7188 80.5019 80.7188 76.383C80.7188 71.2065 85.5234 62.5789 85.5234 62.5789H104.742C104.742 62.5789 109.547 71.2065 109.547 76.383C109.547 80.5019 108.028 84.4518 105.325 87.3641C102.622 90.2765 98.9554 91.9128 95.1328 91.9128C91.3102 91.9128 87.6437 90.2765 84.9406 87.3641Z" stroke="white" stroke-width="3"/>
<path d="M36.552 141L30.888 124.2H32.712L38.016 140.016H37.104L42.576 124.2H44.208L49.608 140.016H48.744L54.096 124.2H55.8L50.136 141H48.264L43.104 126H43.584L38.4 141H36.552ZM58.626 141V128.4H60.33V141H58.626ZM59.49 125.616C59.138 125.616 58.842 125.496 58.602 125.256C58.362 125.016 58.242 124.728 58.242 124.392C58.242 124.056 58.362 123.776 58.602 123.552C58.842 123.312 59.138 123.192 59.49 123.192C59.842 123.192 60.138 123.304 60.378 123.528C60.618 123.752 60.738 124.032 60.738 124.368C60.738 124.72 60.618 125.016 60.378 125.256C60.154 125.496 59.858 125.616 59.49 125.616ZM71.5033 128.28C72.5273 128.28 73.4233 128.48 74.1913 128.88C74.9753 129.264 75.5833 129.856 76.0153 130.656C76.4633 131.456 76.6873 132.464 76.6873 133.68V141H74.9833V133.848C74.9833 132.52 74.6473 131.52 73.9753 130.848C73.3193 130.16 72.3913 129.816 71.1913 129.816C70.2953 129.816 69.5113 130 68.8393 130.368C68.1833 130.72 67.6713 131.24 67.3033 131.928C66.9513 132.6 66.7753 133.416 66.7753 134.376V141H65.0713V128.4H66.7033V131.856L66.4393 131.208C66.8393 130.296 67.4793 129.584 68.3593 129.072C69.2393 128.544 70.2873 128.28 71.5033 128.28ZM86.6421 141.12C85.3301 141.12 84.1781 140.848 83.1861 140.304C82.1941 139.744 81.4181 138.984 80.8581 138.024C80.2981 137.048 80.0181 135.936 80.0181 134.688C80.0181 133.44 80.2821 132.336 80.8101 131.376C81.3541 130.416 82.0901 129.664 83.0181 129.12C83.9621 128.56 85.0181 128.28 86.1861 128.28C87.3701 128.28 88.4181 128.552 89.3301 129.096C90.2581 129.624 90.9861 130.376 91.5141 131.352C92.0421 132.312 92.3061 133.424 92.3061 134.688C92.3061 134.768 92.2981 134.856 92.2821 134.952C92.2821 135.032 92.2821 135.12 92.2821 135.216H81.3141V133.944H91.3701L90.6981 134.448C90.6981 133.536 90.4981 132.728 90.0981 132.024C89.7141 131.304 89.1861 130.744 88.5141 130.344C87.8421 129.944 87.0661 129.744 86.1861 129.744C85.3221 129.744 84.5461 129.944 83.8581 130.344C83.1701 130.744 82.6341 131.304 82.2501 132.024C81.8661 132.744 81.6741 133.568 81.6741 134.496V134.76C81.6741 135.72 81.8821 136.568 82.2981 137.304C82.7301 138.024 83.3221 138.592 84.0741 139.008C84.8421 139.408 85.7141 139.608 86.6901 139.608C87.4581 139.608 88.1701 139.472 88.8261 139.2C89.4981 138.928 90.0741 138.512 90.5541 137.952L91.5141 139.056C90.9541 139.728 90.2501 140.24 89.4021 140.592C88.5701 140.944 87.6501 141.12 86.6421 141.12Z" fill="white"/>
</svg>
